<svg xmlns="http://www.w3.org/2000/svg" xmlns:xlink="http://www.w3.org/1999/xlink" id="Layer_1" x="0px" y="0px" viewBox="0 0 1000 378.4" style="enable-background:new 0 0 1000 378.4;" xml:space="preserve"> <style type="text/css"> .st0{fill:#8666AC;} .st1{fill:#FFFFFF;} .st2{fill:#42C0C0;} </style> <polygon class="st0" points="493.5,60.9 448.6,60.9 448.6,0 418.1,0 418.1,163.8 448.6,163.8 448.6,89.3 493.5,89.3 493.5,163.8 524.1,163.8 524.1,0 493.5,0 "></polygon> <path class="st0" d="M666,5.5c-1.3-1.5-2.8-2.8-4.7-3.9C659.4,0.5,657,0,654.2,0h-73.6c-2.8,0-5.2,0.5-7.1,1.6 c-1.9,1.1-3.5,2.4-4.7,3.9c-1.3,1.5-2.2,3.1-2.7,4.8c-0.6,1.7-0.8,3.2-0.8,4.6v118.5c0,2.6,0.6,5,1.8,7.1s2.8,3.8,4.9,5.1l32.2,20.4 c1.7,1.1,4.1,1.6,7.1,1.6c2.2,0,4.5-0.5,6.9-1.6l42.3-21.8c2.2-1.2,4.3-3,6.4-5.3c2-2.3,3-5.1,2.8-8.3V14.9c0-1.4-0.3-2.9-0.8-4.6 C668.2,8.7,667.3,7,666,5.5z M639,125.4l-27.4,13.8l-15.9-10.1V26.4H639V125.4z"></path> <path class="st0" d="M838.7,163.8h30.5V14.9c0-1.4-0.3-2.9-0.8-4.6c-0.6-1.7-1.4-3.3-2.6-4.8c-1.2-1.5-2.7-2.8-4.6-3.9 C859.3,0.5,856.9,0,854,0h-32.6c-3.5,0-6.7,0.6-9.6,1.7c-2.9,1.1-5.5,2.8-7.7,4.9l-13.7,10.6h-1.2l-14-10.6 c-2.2-2.1-4.8-3.8-7.7-4.9c-2.8-1.1-6-1.7-9.5-1.7h-32.6c-2.8,0-5.2,0.5-7.1,1.6c-1.9,1.1-3.5,2.4-4.7,3.9c-1.3,1.5-2.2,3.1-2.7,4.8 c-0.6,1.7-0.8,3.2-0.8,4.6v148.8h30.5V26.4H753l21.3,12.2v125.2h30.5V38.6L824,26.4h14.7V163.8z"></path> <path class="st0" d="M1000,27.8V0h-89.2v148.8c0,1.4,0.3,2.9,0.8,4.6c0.6,1.7,1.5,3.3,2.7,4.8c1.3,1.5,2.8,2.8,4.7,3.9 c1.9,1.1,4.3,1.6,7.1,1.6h73.8V136h-58.7V91h53.9V63.2h-53.9V27.8H1000z"></path> <path class="st1" d="M418.1,363.1c0,1.4,0.3,3,0.8,4.7c0.6,1.7,1.5,3.4,2.7,4.9c1.3,1.5,2.8,2.9,4.7,4c1.9,1.1,4.3,1.6,7.1,1.6h73.8 v-28.5h-58.7v-46.1h53.9v-28.5h-53.9V239h58.7v-28.5H418v152.6H418.1z"></path> <path class="st1" d="M635,210.5l-90.4,1.1v162.6h25.1l2.4-7.1l35.7,10.6c1.6,0.3,3,0.5,4.3,0.5c4.6,0,8-0.7,10.2-2.1l20.6-12.2 c2-1.2,3.7-2.9,4.8-5.1c1.2-2.1,1.8-4.5,1.8-7.1V223.6c0-3.1-1.2-6-3.7-8.8C643.3,212,639.7,210.5,635,210.5z M618.9,346.7l-9.2,5.5 l-34.5-8.3V237H619L618.9,346.7L618.9,346.7z"></path> <path class="st1" d="M736.7,299.7h23.7v36.5l-24.8,13.6l-15.9-10.1V237h40.7v20.2h27.4l2.4-46.6h-85.6c-2.8-0.2-5.2,0.3-7.1,1.4 c-1.9,1.1-3.5,2.4-4.7,3.9c-1.3,1.5-2.2,3.2-2.7,4.9c-0.6,1.8-0.8,3.3-0.8,4.7v118.7c0,2.6,0.6,5,1.8,7.1s2.8,3.8,4.9,5.1l32.2,20.4 c1.7,1.1,4.1,1.6,7.1,1.6c2.2,0,4.5-0.5,6.9-1.6l41.4-23c4.6-2.4,7.1-6.7,7.6-12.6v-67.5H737v26H736.7z"></path> <path class="st1" d="M831.1,362.9c0,1.4,0.3,3,0.8,4.7c0.6,1.7,1.5,3.4,2.7,4.9c1.3,1.5,2.8,2.9,4.7,4c1.9,1.1,4.3,1.6,7.1,1.6h73.8 v-28.5h-58.7v-46.1h53.9v-28.5h-53.9V239h58.7v-28.5H831v152.4H831.1z"></path> <polygon class="st2" points="200.2,208 200.2,241.3 371.5,145.3 371.5,112 "></polygon> <polygon class="st2" points="200.2,307.8 371.5,211.8 371.5,178.5 200.2,274.5 "></polygon> <polygon class="st2" points="200.2,374.3 371.5,278.3 371.5,245 200.2,341 "></polygon> <polygon class="st2" points="137,255.3 34.3,197.7 34.3,131.3 0,112 0,278.3 34.3,297.5 34.3,231 137,288.6 137,355.1 171.3,374.3 171.3,208 137,188.8 "></polygon> <polygon class="st2" points="353.7,93.9 199.2,7.6 185.7,0 174,6.6 174,6.6 17.7,94.2 52,113.4 185.8,38.4 319.5,113.1 "></polygon> <polygon class="st2" points="319.3,22.2 289.3,6 290.2,59.8 320.1,76.5 "></polygon> </svg>
